<svg id="visual" viewBox="0 0 900 600" width="900" height="600" xmlns="http://www.w3.org/2000/svg" xmlns:xlink="http://www.w3.org/1999/xlink" version="1.1"><rect x="0" y="0" width="900" height="600" fill="#001122"></rect><path d="M0 451L21.5 451C43 451 86 451 128.8 444.7C171.7 438.3 214.3 425.7 257.2 437.2C300 448.7 343 484.3 385.8 494.5C428.7 504.7 471.3 489.3 514.2 481.5C557 473.7 600 473.3 642.8 458C685.7 442.7 728.3 412.3 771.2 405.7C814 399 857 416 878.5 424.5L900 433L900 601L878.5 601C857 601 814 601 771.2 601C728.3 601 685.7 601 642.8 601C600 601 557 601 514.2 601C471.3 601 428.7 601 385.8 601C343 601 300 601 257.2 601C214.3 601 171.7 601 128.8 601C86 601 43 601 21.5 601L0 601Z" fill="#cc0000" stroke-linecap="round" stroke-linejoin="miter"></path></svg>