<svg id="visual" viewBox="0 0 900 600" width="900" height="600" xmlns="http://www.w3.org/2000/svg" xmlns:xlink="http://www.w3.org/1999/xlink" version="1.1"><rect x="0" y="0" width="900" height="600" fill="#038003"></rect><path d="M0 113L21.5 103.5C43 94 86 75 128.8 66.7C171.7 58.3 214.3 60.7 257.2 61.7C300 62.7 343 62.3 385.8 68.3C428.7 74.3 471.3 86.7 514.2 95.7C557 104.7 600 110.3 642.8 104.5C685.7 98.7 728.3 81.3 771.2 72.5C814 63.7 857 63.3 878.5 63.2L900 63L900 0L878.5 0C857 0 814 0 771.2 0C728.3 0 685.7 0 642.8 0C600 0 557 0 514.2 0C471.3 0 428.7 0 385.8 0C343 0 300 0 257.2 0C214.3 0 171.7 0 128.8 0C86 0 43 0 21.5 0L0 0Z" fill="#ffffff" stroke-linecap="round" stroke-linejoin="miter"></path></svg>