<svg id="visual" viewBox="0 0 900 600" width="900" height="600" xmlns="http://www.w3.org/2000/svg"
    xmlns:xlink="http://www.w3.org/1999/xlink" version="1.1">
    <rect x="0" y="0" width="900" height="600" fill="#001220"></rect>
    <path
        d="M0 187L21.5 185.8C43 184.7 86 182.3 128.8 183.5C171.7 184.7 214.3 189.3 257.2 185C300 180.7 343 167.3 385.8 172.2C428.7 177 471.3 200 514.2 215.2C557 230.3 600 237.7 642.8 225.3C685.7 213 728.3 181 771.2 181.2C814 181.3 857 213.7 878.5 229.8L900 246L900 0L878.5 0C857 0 814 0 771.2 0C728.3 0 685.7 0 642.8 0C600 0 557 0 514.2 0C471.3 0 428.7 0 385.8 0C343 0 300 0 257.2 0C214.3 0 171.7 0 128.8 0C86 0 43 0 21.5 0L0 0Z"
        fill="#fa7268"></path>
    <path
        d="M0 197L21.5 187.8C43 178.7 86 160.3 128.8 154.3C171.7 148.3 214.3 154.7 257.2 155.2C300 155.7 343 150.3 385.8 145.5C428.7 140.7 471.3 136.3 514.2 133.5C557 130.7 600 129.3 642.8 134.7C685.7 140 728.3 152 771.2 152.8C814 153.7 857 143.3 878.5 138.2L900 133L900 0L878.5 0C857 0 814 0 771.2 0C728.3 0 685.7 0 642.8 0C600 0 557 0 514.2 0C471.3 0 428.7 0 385.8 0C343 0 300 0 257.2 0C214.3 0 171.7 0 128.8 0C86 0 43 0 21.5 0L0 0Z"
        fill="#ef5f67"></path>
    <path
        d="M0 118L21.5 120.7C43 123.3 86 128.7 128.8 127C171.7 125.3 214.3 116.7 257.2 112.8C300 109 343 110 385.8 116.8C428.7 123.7 471.3 136.3 514.2 141.2C557 146 600 143 642.8 137.5C685.7 132 728.3 124 771.2 123C814 122 857 128 878.5 131L900 134L900 0L878.5 0C857 0 814 0 771.2 0C728.3 0 685.7 0 642.8 0C600 0 557 0 514.2 0C471.3 0 428.7 0 385.8 0C343 0 300 0 257.2 0C214.3 0 171.7 0 128.8 0C86 0 43 0 21.5 0L0 0Z"
        fill="#e34c67"></path>
    <path
        d="M0 101L21.5 93.8C43 86.7 86 72.3 128.8 73.5C171.7 74.7 214.3 91.3 257.2 92C300 92.7 343 77.3 385.8 77.3C428.7 77.3 471.3 92.7 514.2 93.5C557 94.3 600 80.7 642.8 77.7C685.7 74.7 728.3 82.3 771.2 83C814 83.7 857 77.3 878.5 74.2L900 71L900 0L878.5 0C857 0 814 0 771.2 0C728.3 0 685.7 0 642.8 0C600 0 557 0 514.2 0C471.3 0 428.7 0 385.8 0C343 0 300 0 257.2 0C214.3 0 171.7 0 128.8 0C86 0 43 0 21.5 0L0 0Z"
        fill="#d53867"></path>
    <path
        d="M0 39L21.5 38.5C43 38 86 37 128.8 42.5C171.7 48 214.3 60 257.2 58.5C300 57 343 42 385.8 37.8C428.7 33.7 471.3 40.3 514.2 45.2C557 50 600 53 642.8 51.2C685.7 49.3 728.3 42.7 771.2 38.7C814 34.7 857 33.3 878.5 32.7L900 32L900 0L878.5 0C857 0 814 0 771.2 0C728.3 0 685.7 0 642.8 0C600 0 557 0 514.2 0C471.3 0 428.7 0 385.8 0C343 0 300 0 257.2 0C214.3 0 171.7 0 128.8 0C86 0 43 0 21.5 0L0 0Z"
        fill="#c62368"></path>
</svg>